<svg width="1512" height="63" viewBox="0 0 1512 63" fill="none" xmlns="http://www.w3.org/2000/svg">
<path d="M-67 31.3868C-59.5967 29.6823 -33.8874 29.3896 -20.923 31.3868C-11.038 32.9095 -0.00419617 35.691 10.3605 34.8474C22.0269 33.8978 37.288 17.9575 49.667 17.0364C63.4794 16.0086 73.5 37.7055 89 42.1731C101.974 45.9128 123.959 36.8963 140.599 30.2763C161.829 21.8302 181.291 20.7811 193.154 25.9204C203.175 30.2617 213.487 35.691 224.988 37.7055C240.83 40.4802 253.672 36.2764 278.594 27.1342C301.375 18.7771 331.114 24.7754 356.363 29.6565C366.44 31.6045 377.049 35.6911 435.389 37.1287C486.897 38.3979 518.626 16.7609 571.5 17.0364C631.207 17.3475 705.9 43.4802 714.228 43.9983C762.5 47.0011 777.5 19.0011 835.5 22.0011C914.206 26.0721 924.36 47.3039 953.5 43.7917C1003.61 37.7514 1038 17.1488 1059.5 24.0012C1088.6 33.2752 1116.14 49.7328 1137.74 43.7918C1177.5 32.8587 1184.15 23.1662 1198.5 24.0012C1213.61 24.8807 1226.44 33.9694 1238.21 35.9837C1250.99 38.1685 1269.41 37.9981 1283.85 32.8589C1294.8 28.9598 1308.49 23.0882 1327.72 23.6391C1343.25 24.0845 1355.64 34.3733 1368.5 36.1731C1393.5 39.6731 1414 31.6731 1429 30.6731C1440.32 29.9187 1451.98 36.8274 1466.05 37.7141C1471.5 36.8618 1476.12 35.7083 1484.67 34.8474C1490.96 34.5547 1501.19 34.5547 1511.72 34.5547" stroke="#245985" stroke-width="34" stroke-linejoin="round"/>
</svg>
