<svg width="1512" height="88" viewBox="0 0 1512 88" fill="none" xmlns="http://www.w3.org/2000/svg">
<path d="M-12.5 56.6081C-5.09669 58.3126 20.6126 58.6052 33.577 56.6081C43.462 55.0853 54.4958 52.3038 64.8605 53.1474C76.5269 54.097 91.788 70.0374 104.167 70.9585C117.979 71.9862 128 50.2894 143.5 45.8218C156.474 42.0821 178.459 51.0986 195.099 57.7186C216.329 66.1647 235.791 67.2138 247.654 62.0745C257.675 57.7331 267.987 52.3038 279.488 50.2894C295.33 47.5147 308.172 51.7185 333.094 60.8607C355.875 69.2178 385.614 63.2194 410.863 58.3384C420.94 56.3903 431.549 52.3038 489.889 50.8662C541.397 49.5969 637.431 51.1331 690.305 50.8576C750.012 50.5465 760.998 47.1387 768.728 43.9966C776.74 40.7402 789.63 31.1096 807.682 22.5097C820.268 16.5138 836.684 15.5626 877.187 18.9716C906.985 21.4795 955.189 29.1985 984.329 32.7108C1034.44 38.751 1050.78 32.7796 1072.28 25.9273C1101.39 16.6532 1128.15 17.2843 1150.09 21.8554C1161.69 24.2744 1174.19 31.5745 1192.24 44.2032C1219.24 63.0898 1241.34 66.6284 1255.69 65.7934C1270.8 64.9139 1280.94 54.0255 1292.71 52.0111C1305.49 49.8263 1323.91 49.9967 1338.35 55.136C1349.3 59.0351 1362.99 64.9067 1382.22 64.3558C1397.75 63.9104 1410.14 53.6215 1423 51.8218C1448 48.3218 1468.5 56.3218 1483.5 57.3218C1494.82 58.0762 1506.48 51.1675 1520.55 50.2808C1526 51.1331 1530.62 52.2866 1539.17 53.1474C1545.46 53.4401 1555.69 53.4401 1566.22 53.4401" stroke="#F9AB01" stroke-width="34" stroke-linejoin="round"/>
</svg>
